<svg width="19" height="22" viewBox="0 0 19 22" fill="none" xmlns="http://www.w3.org/2000/svg">
<path d="M6.27679 12.375H4.58036C4.30045 12.375 4.07143 12.143 4.07143 11.8594V10.1406C4.07143 9.85703 4.30045 9.625 4.58036 9.625H6.27679C6.5567 9.625 6.78571 9.85703 6.78571 10.1406V11.8594C6.78571 12.143 6.5567 12.375 6.27679 12.375ZM10.8571 11.8594V10.1406C10.8571 9.85703 10.6281 9.625 10.3482 9.625H8.65179C8.37187 9.625 8.14286 9.85703 8.14286 10.1406V11.8594C8.14286 12.143 8.37187 12.375 8.65179 12.375H10.3482C10.6281 12.375 10.8571 12.143 10.8571 11.8594ZM14.9286 11.8594V10.1406C14.9286 9.85703 14.6996 9.625 14.4196 9.625H12.7232C12.4433 9.625 12.2143 9.85703 12.2143 10.1406V11.8594C12.2143 12.143 12.4433 12.375 12.7232 12.375H14.4196C14.6996 12.375 14.9286 12.143 14.9286 11.8594ZM10.8571 15.9844V14.2656C10.8571 13.982 10.6281 13.75 10.3482 13.75H8.65179C8.37187 13.75 8.14286 13.982 8.14286 14.2656V15.9844C8.14286 16.268 8.37187 16.5 8.65179 16.5H10.3482C10.6281 16.5 10.8571 16.268 10.8571 15.9844ZM6.78571 15.9844V14.2656C6.78571 13.982 6.5567 13.75 6.27679 13.75H4.58036C4.30045 13.75 4.07143 13.982 4.07143 14.2656V15.9844C4.07143 16.268 4.30045 16.5 4.58036 16.5H6.27679C6.5567 16.5 6.78571 16.268 6.78571 15.9844ZM14.9286 15.9844V14.2656C14.9286 13.982 14.6996 13.75 14.4196 13.75H12.7232C12.4433 13.75 12.2143 13.982 12.2143 14.2656V15.9844C12.2143 16.268 12.4433 16.5 12.7232 16.5H14.4196C14.6996 16.5 14.9286 16.268 14.9286 15.9844ZM19 4.8125V19.9375C19 21.0762 18.0882 22 16.9643 22H2.03571C0.91183 22 0 21.0762 0 19.9375V4.8125C0 3.67383 0.91183 2.75 2.03571 2.75H4.07143V0.515625C4.07143 0.232031 4.30045 0 4.58036 0H6.27679C6.5567 0 6.78571 0.232031 6.78571 0.515625V2.75H12.2143V0.515625C12.2143 0.232031 12.4433 0 12.7232 0H14.4196C14.6996 0 14.9286 0.232031 14.9286 0.515625V2.75H16.9643C18.0882 2.75 19 3.67383 19 4.8125ZM16.9643 19.6797V6.875H2.03571V19.6797C2.03571 19.8215 2.15022 19.9375 2.29018 19.9375H16.7098C16.8498 19.9375 16.9643 19.8215 16.9643 19.6797Z" fill="#EBEBEB"/>
</svg>
