<svg width="28" height="28" viewBox="0 0 28 28" fill="none" xmlns="http://www.w3.org/2000/svg">
<path d="M14 0C6.26613 0 0 6.26613 0 14C0 21.7339 6.26613 28 14 28C21.7339 28 28 21.7339 28 14C28 6.26613 21.7339 0 14 0ZM14 25.2903C7.7621 25.2903 2.70968 20.2379 2.70968 14C2.70968 7.7621 7.7621 2.70968 14 2.70968C20.2379 2.70968 25.2903 7.7621 25.2903 14C25.2903 20.2379 20.2379 25.2903 14 25.2903ZM19.7468 10.4887L16.2355 14L19.7468 17.5113C20.0121 17.7766 20.0121 18.2056 19.7468 18.471L18.471 19.7468C18.2056 20.0121 17.7766 20.0121 17.5113 19.7468L14 16.2355L10.4887 19.7468C10.2234 20.0121 9.79435 20.0121 9.52903 19.7468L8.25323 18.471C7.9879 18.2056 7.9879 17.7766 8.25323 17.5113L11.7645 14L8.25323 10.4887C7.9879 10.2234 7.9879 9.79435 8.25323 9.52903L9.52903 8.25323C9.79435 7.9879 10.2234 7.9879 10.4887 8.25323L14 11.7645L17.5113 8.25323C17.7766 7.9879 18.2056 7.9879 18.471 8.25323L19.7468 9.52903C20.0121 9.79435 20.0121 10.2234 19.7468 10.4887Z" fill="#55EC20"/>
</svg>
